<svg width="48.00000000000001" height="48.00000000000001" xmlns="http://www.w3.org/2000/svg">

 <g>
  <title>background</title>
  <rect fill="none" id="canvas_background" height="402" width="582" y="-1" x="-1"/>
 </g>
 <g>
  <title>Layer 1</title>
  <path id="svg_2" fill="#7f7f7f" d="m23.262,30.516c-0.899,0 -1.585,0.225 -2.056,0.674c-0.471,0.451 -0.707,1.115 -0.707,1.994c0,0.848 0.241,1.504 0.723,1.971c0.482,0.466 1.161,0.697 2.04,0.697c0.858,0 1.528,-0.237 2.009,-0.713c0.481,-0.478 0.723,-1.129 0.723,-1.955c0,-0.857 -0.238,-1.518 -0.715,-1.979c-0.476,-0.46 -1.148,-0.689 -2.017,-0.689z"/>
  <path id="svg_3" fill="#7f7f7f" d="m29.329,13.703c-1.271,-1.036 -2.985,-1.554 -5.141,-1.554c-2.616,0 -5.092,0.654 -7.425,1.962l1.711,3.438c2.009,-1.025 3.799,-1.539 5.368,-1.539c0.9,0 1.602,0.178 2.104,0.534c0.503,0.355 0.754,0.874 0.754,1.554c0,0.607 -0.176,1.156 -0.525,1.648c-0.351,0.492 -1.074,1.13 -2.174,1.915c-1.141,0.837 -1.926,1.627 -2.354,2.37c-0.43,0.742 -0.644,1.617 -0.644,2.621l0,1.162l4.159,0l0,-0.941c0,-0.628 0.134,-1.137 0.399,-1.523c0.268,-0.387 0.902,-0.952 1.907,-1.695c1.466,-1.046 2.459,-1.988 2.982,-2.826c0.522,-0.838 0.784,-1.832 0.784,-2.982c0.002,-1.727 -0.632,-3.109 -1.905,-4.144z"/>
  <path id="svg_4" fill="#7f7f7f" d="m24,0c-13.255,0 -24,10.745 -24,24s10.745,24 24,24s24,-10.745 24,-24s-10.745,-24 -24,-24zm0,44c-11.046,0 -20,-8.954 -20,-20c0,-11.045 8.954,-20 20,-20s20,8.955 20,20c0,11.046 -8.954,20 -20,20z"/>
 </g>
</svg>